<?xml version="1.0" standalone="no"?>
<!DOCTYPE svg PUBLIC "-//W3C//DTD SVG 20010904//EN"
 "http://www.w3.org/TR/2001/REC-SVG-20010904/DTD/svg10.dtd">
<svg version="1.0" xmlns="http://www.w3.org/2000/svg"
 width="512.000000pt" height="512.000000pt" viewBox="0 0 512.000000 512.000000"
 preserveAspectRatio="xMidYMid meet">

<g transform="translate(0.000000,512.000000) scale(0.100000,-0.100000)"
fill="#000000" stroke="none">
<path d="M853 5105 c-432 -78 -763 -411 -838 -844 -22 -125 -22 -3287 0 -3412
71 -408 366 -727 765 -828 84 -21 87 -21 1785 -21 1698 0 1701 0 1785 21 371
94 655 378 749 749 21 84 21 87 21 1785 0 1698 0 1701 -21 1785 -101 399 -420
694 -828 765 -117 21 -3305 21 -3418 0z m1887 -825 c170 -41 296 -126 384
-259 92 -138 145 -292 155 -446 l6 -100 150 -6 c170 -6 206 -14 290 -64 118
-69 209 -203 239 -350 16 -77 51 -349 91 -700 14 -126 35 -300 46 -385 38
-312 69 -607 69 -670 -1 -173 -120 -354 -288 -437 l-76 -38 -241 0 c-210 0
-244 2 -267 17 -49 32 -46 133 4 171 22 17 51 20 219 27 219 9 266 20 323 76
84 81 99 169 72 424 -16 153 -135 1149 -156 1305 -34 250 -59 307 -160 358
-61 30 -198 55 -243 43 -43 -10 -50 -42 -39 -191 11 -163 5 -187 -51 -214 -52
-25 -60 -25 -101 -6 -63 30 -72 71 -101 445 -33 439 -68 567 -179 666 -244
220 -611 157 -750 -128 -34 -69 -54 -157 -71 -295 l-6 -53 353 0 c217 0 368
-4 391 -11 67 -18 101 -117 59 -169 -15 -19 -32 -23 -132 -30 -63 -5 -335 -11
-603 -15 -269 -3 -512 -10 -540 -15 -32 -6 -73 -25 -107 -48 -99 -68 -124
-156 -118 -402 4 -135 8 -163 30 -222 36 -97 83 -171 158 -251 124 -133 236
-205 633 -405 411 -208 417 -212 417 -311 0 -101 -53 -113 -208 -49 -84 34
-446 214 -612 303 -463 249 -660 542 -661 980 -1 251 69 432 205 533 106 78
192 104 392 117 l101 7 12 101 c30 240 122 439 260 555 82 70 198 129 296 151
77 17 263 12 355 -9z m-792 -1250 c38 -23 55 -59 76 -158 18 -85 35 -121 77
-156 17 -15 187 -105 378 -201 191 -95 388 -201 438 -234 163 -109 271 -249
329 -426 38 -116 45 -304 15 -427 -73 -308 -303 -532 -606 -589 -39 -7 -285
-13 -702 -16 l-642 -5 -83 44 c-109 56 -193 139 -242 239 -64 130 -65 200 -10
559 41 267 50 301 84 333 46 41 102 40 143 -4 39 -42 39 -91 0 -364 -34 -238
-36 -365 -6 -421 54 -101 95 -127 226 -144 108 -13 1052 -13 1154 0 174 23
337 145 425 319 31 62 33 71 36 193 6 205 -23 288 -143 416 -91 98 -137 127
-465 291 -559 279 -624 336 -637 562 -7 102 6 148 48 184 37 30 63 31 107 5z"/>
</g>
</svg>
